<svg width="441" height="102" viewBox="0 0 441 102" fill="none" xmlns="http://www.w3.org/2000/svg">
<path d="M27.2723 13.0129C28.768 10.2709 30.3385 4.56255 24.655 3.66518C17.5507 2.54346 6.52045 12.0781 4.83786 16.752C3.15528 21.4258 1.65962 31.8953 7.45519 33.7648C13.2508 35.6343 22.0377 31.8953 24.655 30.5866C26.7489 29.5396 38.6142 22.6722 44.2852 19.3693C41.6678 20.1795 36.3209 22.5102 35.8722 25.3519C35.3114 28.904 33.6288 29.8388 34.7505 33.7648C35.8722 37.6908 38.1157 38.9995 39.2374 38.9995C40.3591 38.9995 45.2199 38.9995 47.4634 37.3169C49.7068 35.6343 52.1372 32.83 52.1372 30.5866C52.1372 28.3431 51.2025 21.0519 48.7721 20.678C46.8277 20.3789 58.6806 20.5534 64.8501 20.678L56.4372 41.9908C59.2415 37.4416 65.224 28.044 66.7197 26.8475C68.5892 25.3519 70.8326 24.0432 71.7674 24.2301C72.7022 24.4171 74.0109 25.1649 73.6369 28.717C73.3378 31.5587 70.6457 40.6198 69.337 44.7951C71.6428 40.0589 76.5908 30.2127 77.9369 28.717C79.6195 26.8475 81.489 24.978 82.0499 26.8475C82.6107 28.717 83.9194 23.8562 84.1064 30.5866C84.2559 35.9709 83.4209 43.9226 82.9846 47.2255L92.5193 26.8475L109.719 28.717C112.025 22.7968 116.412 10.9938 115.515 11.1434C114.393 11.3303 108.41 10.7694 107.102 13.0129C106.055 14.8077 103.55 19.494 102.428 21.6128L92.5193 53.5819L123.367 30.5866C120.749 31.3775 115.515 33.3073 115.515 34.6996C115.515 36.4399 112.523 41.056 112.897 46.1038C113.196 50.142 118.506 50.4037 121.123 50.0298C123.367 49.2197 128.115 47.0385 129.162 44.7951C130.471 41.9908 130.097 35.6343 130.097 34.6996C130.097 33.9518 127.106 32.2692 125.61 31.5213H143.371L135.893 53.5819C138.261 50.0298 143.333 42.3647 144.679 40.1212C146.026 37.8778 150.475 35.572 152.532 34.6996C153.903 33.8894 156.233 34.2135 154.588 41.9908C152.943 49.7681 158.14 42.1154 160.944 37.3169L177.023 38.9995L171.788 25.3519L164.31 58.0688L198.148 46.1038C197.65 44.1096 196.017 40.1212 193.474 40.1212C190.296 40.1212 184.501 42.1777 182.257 46.1038C180.014 50.0298 175.714 57.8819 179.827 59.5645C183.117 60.9105 196.777 48.4095 203.196 41.9908C200.89 44.7951 196.241 51.0393 196.092 53.5819C195.905 56.7601 194.035 61.247 196.092 62.7427C197.737 63.9392 199.021 63.2412 199.457 62.7427L213.852 26.8475L207.122 50.0298L204.692 62.7427C206.873 57.6326 211.759 47.1507 213.852 46.1038C216.47 44.7951 222.639 46.2907 223.387 48.1603C224.135 50.0298 225.07 52.6472 223.387 53.5819C221.705 54.5167 219.274 58.6297 216.096 60.6862C213.553 62.3314 209.054 63.3659 207.122 63.6774L240.4 28.717C238.406 34.1387 234.081 46.2907 232.735 51.5254C231.389 56.7601 230.304 63.1789 229.931 65.7339L236.848 66.8557L245.635 62.7427C249.311 62.8673 257.076 62.7801 258.721 61.434C260.778 59.7514 264.33 59.0036 264.33 56.3862C264.33 53.7689 260.03 51.3385 255.73 50.9646C251.43 50.5907 247.878 54.3297 246.943 56.3862C246.009 58.4427 243.391 65.7339 246.943 67.7904C250.495 69.8469 253.861 70.5947 256.478 69.8469C258.572 69.2487 263.832 66.8557 266.2 65.7339L317.799 63.1166C316.553 62.0572 313.462 59.8262 311.069 59.3775C308.077 58.8166 300.786 66.6687 299.851 69.66C298.917 72.6512 301.16 76.5773 303.403 76.7642C305.198 76.9138 309.511 75.7048 311.442 75.0816L324.342 41.8038L314.247 78.2599L326.773 73.0251C329.328 73.7106 335.036 74.8573 337.429 73.9599C340.42 72.8382 345.281 70.5947 345.468 68.1643C345.655 65.7339 341.168 62.1818 337.616 62.1818C334.064 62.1818 328.829 66.1078 328.268 68.5382C327.707 70.9687 326.399 77.1381 328.455 79.0077C330.512 80.8772 334.064 81.812 336.12 81.4381C338.177 81.0642 346.777 79.7555 347.525 77.512C348.272 75.2686 370.333 69.8469 370.333 68.1643C370.333 66.4818 366.407 65.1731 363.229 64.9861C360.051 64.7992 354.442 67.9774 354.255 70.0339C354.068 72.0904 370.146 79.1946 369.585 81.2511C369.024 83.3076 363.977 85.3641 361.172 84.9902C358.929 84.6911 354.504 83.6192 352.572 83.1207L385.289 55.4515L387.72 60.1253L385.289 67.6035L379.494 88.3554L413.893 78.2599C414.08 76.7019 414.118 73.1747 412.772 71.5295C411.089 69.473 408.098 68.3513 405.293 69.0991C402.489 69.8469 397.441 72.4643 395.198 77.1381C392.954 81.812 392.581 89.1032 394.824 89.6641C397.067 90.2249 401.367 90.5988 403.985 88.7293C406.079 87.2337 413.457 77.886 416.885 73.3991L408.472 91.5336C408.222 93.4031 406.939 97.1796 403.798 97.3292C400.657 97.4787 395.509 96.6437 393.328 96.2074L425.671 72.6512L418.567 93.0292C420.374 90.7858 424.624 85.4763 427.167 82.1859C430.345 78.0729 431.841 76.9512 433.897 77.1381C435.954 77.3251 437.823 76.9512 437.823 79.1946C437.823 80.9894 437.699 92.78 437.636 98.4509" stroke="#FF9B9B" stroke-width="6" stroke-linecap="round" stroke-linejoin="round"/>
</svg>
