<svg width="440" height="97" viewBox="0 0 440 97" fill="none" xmlns="http://www.w3.org/2000/svg">
<path d="M6.65753 32.4308C5.3403 32.0277 4.16201 31.4091 3.12265 30.5751L3.03827 30.0208L1.79833 28.8149C0.980578 27.1805 0.575383 25.4416 0.58274 23.5983C0.630563 21.7246 0.842944 19.838 1.21988 17.9385C2.06662 15.2736 3.28832 12.7701 4.885 10.4282C6.51714 8.09129 8.55738 6.06519 11.0057 4.3499L16.2807 1.56948C17.8446 0.994904 19.5432 0.746751 21.3764 0.825019C23.2451 0.908297 25.0736 1.14862 26.8617 1.54598C28.3508 1.75643 29.5393 2.43067 30.4272 3.56872C31.1537 5.08174 31.265 6.72482 30.7613 8.49795L29.2923 11.5993L24.6655 10.9454L24.7857 10.0945C25.6852 8.84739 26.1843 7.36291 26.283 5.64103L25.2691 3.21947C24.8733 2.69341 24.3311 2.43597 23.6424 2.44713C21.0099 2.90684 18.5452 3.84231 16.2483 5.25353L15.0724 6.28074C13.929 6.9509 12.9403 7.80565 12.1063 8.84501L11.734 8.7924C10.2025 10.6734 8.86364 12.7263 7.71747 14.9511C6.61177 17.1454 5.82034 19.5469 5.34319 22.1556C5.07877 24.7943 5.65968 27.2089 7.08594 29.3994L7.70967 29.9758L7.65706 30.348L10.5988 31.7944C13.4241 31.5066 16.1422 30.6974 18.7532 29.3667C21.3996 28.041 24.3008 27.7278 27.4566 28.4269L27.3364 29.2778C24.0826 30.807 20.7725 31.9665 17.4062 32.7565C14.0399 33.5464 10.457 33.4379 6.65753 32.4308Z" fill="#8DB1C0"/>
<path d="M35.8096 36.8762C34.6088 36.4172 33.6101 35.6793 32.8135 34.6627C31.625 32.3249 31.4085 29.7629 32.1639 26.9766C32.5921 25.4821 33.228 24.0531 34.0716 22.6897C34.9203 21.2908 35.9261 20.0587 37.0892 18.9935L39.5935 17.3946L41.9549 16.8062L49.1345 17.8209L51.1647 19.1927L51.1046 19.6181C52.1478 19.6571 52.8979 20.1066 53.355 20.9668C54.5284 23.4109 54.7276 26.2236 53.9525 29.4049C53.2923 31.5176 52.1531 33.3094 50.5349 34.7804L50.0187 34.9786L49.7839 35.4879L48.6451 35.8694L48.2434 36.4093C46.619 37.1562 44.974 37.665 43.3083 37.9359L35.8096 36.8762ZM42.4465 35.5901C44.896 34.6344 46.8102 32.9883 48.1891 30.6517C49.0933 29.116 49.5868 27.2872 49.6697 25.1653C49.637 23.6056 49.1867 22.1859 48.3188 20.906C47.153 20.1988 46.053 19.4105 45.0186 18.5411L43.022 19.2353L42.7191 19.8434C41.3228 20.7671 40.1319 21.9007 39.1465 23.2441C37.6762 25.4593 36.7939 27.9926 36.4994 30.844C36.623 32.2718 37.0731 33.565 37.8497 34.7235C38.4181 35.5632 39.1557 36.1014 40.0625 36.3381L42.4465 35.5901Z" fill="#8DB1C0"/>
<path d="M80.8418 44.4879L81.0072 43.3179C80.9182 41.3887 80.9703 38.9731 81.1634 36.0712C81.3616 33.1338 81.4231 30.2676 81.348 27.4724L80.9757 27.4198C78.7405 29.4183 76.8879 31.6518 75.418 34.1201C73.9836 36.5935 72.8355 39.2158 71.9737 41.987L67.1873 41.3106L67.4052 39.7683C68.0955 37.4429 68.8085 35.0846 69.5442 32.6933C70.285 30.2666 70.8307 27.8123 71.1815 25.3304L70.6497 25.2553L69.6559 26.1455L69.3368 26.1004L68.268 27.5224L67.7136 27.6068C66.0757 29.4728 64.5468 31.4627 63.127 33.5765C61.7427 35.6953 60.5434 37.9125 59.529 40.2283L54.9021 39.5744L54.8854 38.5414L61.829 18.964L66.4027 19.6103L66.2373 20.7803L64.8528 24.436L65.225 24.4887L65.7262 24.3967L66.0141 23.895L69.2016 22.0672L75.3934 22.7795L75.6899 22.9841C76.1419 23.8798 76.2421 24.8342 75.9904 25.8473L76.3095 25.8924L78.9733 24.3161L85.0055 25.0058L86.0945 26.8956C86.2109 30.1667 86.1449 33.4482 85.8967 36.7401C85.6889 40.0016 85.6069 42.7565 85.6508 45.0048L80.8418 44.4879Z" fill="#8DB1C0"/>
<path d="M90.0585 51.4319L90.299 49.7301C91.4175 45.9102 92.5004 42.0853 93.548 38.2554C94.636 34.3951 95.7899 30.5802 97.0097 26.8108L91.7446 26.0667L91.8649 25.2158L97.5548 25.6402C98.4166 22.8689 99.4836 20.1809 100.756 17.5762C102.063 14.9764 103.683 12.6015 105.614 10.4515L106.797 9.37113L107.875 9.03529L108.323 8.55608C110.353 8.01119 112.556 8.0332 114.931 8.6221L115.388 8.84929L115.267 9.70021C114.275 9.55992 113.391 9.67012 112.617 10.0308C110.811 11.2945 109.266 12.7577 107.982 14.4206C106.82 16.2454 105.815 18.1104 104.968 20.0157C104.12 21.921 103.312 23.9225 102.546 26.0201L109.726 27.0347L110.022 27.2394L109.902 28.0903L102.008 27.1375C100.632 31.2464 99.3571 35.4058 98.1835 39.6157C97.015 43.7901 95.8489 47.9468 94.6854 52.0858L90.0585 51.4319Z" fill="#8DB1C0"/>
<path d="M114.307 47.9697C113.106 47.5107 112.107 46.7729 111.311 45.7562C110.122 43.4185 109.906 40.8565 110.661 38.0702C111.089 36.5757 111.725 35.1467 112.569 33.7832C113.418 32.3843 114.423 31.1523 115.587 30.0871L118.091 28.4882L120.452 27.8998L127.632 28.9144L129.662 30.2862L129.602 30.7117C130.645 30.7506 131.395 31.2002 131.852 32.0604C133.026 34.5045 133.225 37.3172 132.45 40.4985C131.79 42.6111 130.65 44.4029 129.032 45.8739L128.516 46.0722L128.281 46.5815L127.142 46.963L126.741 47.5029C125.116 48.2497 123.471 48.7586 121.806 49.0295L114.307 47.9697ZM120.944 46.6836C123.393 45.7279 125.308 44.0818 126.686 41.7453C127.591 40.2095 128.084 38.3807 128.167 36.2588C128.134 34.6992 127.684 33.2794 126.816 31.9996C125.65 31.2924 124.55 30.504 123.516 29.6346L121.519 30.3288L121.216 30.937C119.82 31.8607 118.629 32.9943 117.644 34.3377C116.174 36.5528 115.291 39.0861 114.997 41.9375C115.12 43.3654 115.57 44.6585 116.347 45.817C116.915 46.6568 117.653 47.195 118.56 47.4316L120.944 46.6836Z" fill="#8DB1C0"/>
<path d="M134.274 51.3882L134.71 48.3036C135.637 45.0715 136.582 41.8418 137.544 38.6146C138.542 35.3925 139.727 32.2511 141.1 29.1904L145.673 29.8368L145.523 30.9004L143.329 36.8285L143.648 36.8736L146.584 34.5221L148.641 33.4024C149.815 32.5195 151.166 32.168 152.696 32.3481C154.266 32.4976 155.795 32.6776 157.285 32.8881L157.901 33.5176L157.632 36.5715L156.864 40.8568L152.077 40.1803L152.686 35.8726L152.943 35.2037L152.624 35.1586L150.931 36.0043C149.222 37.6071 147.144 39.5193 144.696 41.741C143.534 43.3126 142.491 44.9371 141.567 46.6147C140.647 48.2567 139.873 50.0278 139.243 51.9277L134.274 51.3882Z" fill="#8DB1C0"/>
<path d="M162.734 55.3561L162.832 54.6647L163.371 49.6962L166.186 37.0752L160.229 36.2334L160.349 35.3825L166.381 35.6925C166.976 34.0407 167.469 32.0853 167.861 29.8262C168.293 27.5367 168.753 25.5585 169.242 23.8918L173.869 24.5456L173.651 26.0879L171.562 35.8822L176.88 36.6338L176.76 37.4847L171.207 37.2424C170.452 40.2819 169.707 43.377 168.972 46.5279C168.243 49.6433 167.706 52.804 167.361 56.01L162.734 55.3561Z" fill="#8DB1C0"/>
<path d="M194.493 60.9293L194.212 60.6183C192.902 58.3719 192.481 55.9798 192.948 53.4421L192.629 53.397L192.189 53.823L191.87 53.7779L191.21 54.6069L186.619 57.5382C185.248 58.2846 183.711 58.5376 182.009 58.2971C180.308 58.0566 178.606 57.8161 176.904 57.5756C176.24 57.1563 175.793 56.605 175.564 55.9217C175.425 54.347 175.529 52.7163 175.876 51.0295C176.486 49.2714 177.302 47.5965 178.322 46.0049C179.383 44.3829 180.594 42.8543 181.954 41.4191L182.508 41.3347L184.086 39.7676L184.632 39.7364L184.86 39.2803C186.529 38.2144 188.326 37.6547 190.25 37.6011C192.174 37.5476 194.132 37.77 196.123 38.2683L198.191 39.754C198.745 40.7001 198.898 41.6621 198.651 42.6398L201.576 43.0531L201.388 44.3827C200.14 45.7974 199.253 47.4622 198.73 49.3772C198.246 51.2617 197.862 53.2144 197.576 55.2354C197.579 57.0077 197.979 58.6554 198.776 60.1785L199.278 60.4664L199.12 61.5832L194.493 60.9293ZM181.3 56.027L184.889 54.0391L185.208 54.0842L186.824 52.6309L188.175 51.5199C189.884 50.1703 191.482 48.7146 192.969 47.1527L193.341 47.2053C194.393 46.1605 195.191 44.9896 195.736 43.6924L193.875 43.4293C194.171 42.0971 193.977 40.9124 193.292 39.8753L192.297 39.6262C190.586 40.2161 189.073 41.0692 187.758 42.1852C186.448 43.2658 185.235 44.4323 184.117 45.6848C183.258 46.9014 182.46 48.199 181.723 49.5775C181.026 50.9255 180.517 52.3543 180.195 53.8638L180.593 56.0357L181.072 56.1033L181.3 56.027Z" fill="#8DB1C0"/>
<path d="M203.708 61.3636L203.813 60.6191L206.791 60.6602L206.858 60.1815L202.391 59.5502L203.143 54.2319C204.204 49.2829 205.409 44.4627 206.759 39.7715C208.15 35.0499 209.654 30.1634 211.272 25.1123L215.899 25.7662L215.749 26.8298L210.791 43.4874L211.269 43.5551C212.98 42.9651 214.777 42.7852 216.662 43.0153C218.551 43.2099 220.47 43.445 222.42 43.7206C223.646 44.0024 224.703 44.7123 225.591 45.8503C226.211 47.3483 226.252 49.108 225.713 51.1293C224.734 53.1968 223.427 55.0193 221.794 56.5966L219.305 58.4689L218.933 58.4163L218.698 58.9256C216.493 60.4582 214.147 61.4467 211.661 61.891C209.176 62.3353 206.525 62.1595 203.708 61.3636ZM208.78 60.0191L214.366 57.337L217.97 54.1033L219.396 52.8402C220.386 51.4614 221.055 49.9285 221.402 48.2417L220.562 45.7363L218.487 44.3038C215.743 44.784 213.162 45.7753 210.743 47.2779L209.575 48.2519L207.003 60.3104L207.694 60.4081L208.78 60.0191Z" fill="#8DB1C0"/>
<path d="M228.923 64.4932L227.85 63.2567C227.852 60.9425 228.074 58.6051 228.516 56.2447C229.84 50.9711 231.265 46.0013 232.793 41.3351C234.325 36.6335 235.934 32.1596 237.619 27.9135L242.033 28.5374L241.974 30.1022C240.28 34.6724 238.57 39.4756 236.846 44.5117C235.162 49.5174 233.76 54.8341 232.639 60.4618L232.887 63.3175L236.959 64.0557L236.839 64.9067C234.368 65.2446 231.73 65.1068 228.923 64.4932Z" fill="#8DB1C0"/>
<path d="M249.209 67.577C247.628 67.2452 246.22 66.594 244.983 65.6236L244.845 65.0617L244.389 64.8345C243.099 62.4463 242.895 59.7957 243.777 56.8826C244.609 54.3241 246.018 52.1546 248.006 50.3742L251.588 48.4394C253.015 48.0625 254.545 47.9893 256.176 48.2198C257.842 48.4553 259.473 48.6858 261.068 48.9113C263.003 49.2933 264.539 50.324 265.676 52.0035C266.118 52.97 266.259 54.0206 266.099 55.1552L264.72 57.6183L264.219 57.7102L263.749 58.349L263.194 58.4333L262.808 58.8669C260.632 60.1868 258.314 60.9802 255.853 61.2473C253.398 61.4788 250.822 61.2776 248.127 60.6436L248.03 61.335L248.786 64.4254L249.433 64.8422L249.517 65.3965L252.459 66.8429C255.148 66.7528 258.501 65.5451 262.518 63.2198L267.928 64.4725L267.83 65.1639L267.618 65.5136C264.754 66.8447 261.808 67.7303 258.781 68.1703C255.753 68.6104 252.562 68.4126 249.209 67.577ZM253.868 59.1766C255.543 58.8348 257.153 58.1943 258.696 57.2551L261.078 54.988L261.456 53.848L260.389 51.419C259.582 50.4732 258.619 49.867 257.499 49.6003C255.732 49.8207 254.123 50.5878 252.672 51.9015L251.913 52.2824C249.992 54.3615 248.707 56.8017 248.058 59.6031L250.291 59.9187L253.868 59.1766Z" fill="#8DB1C0"/>
<path d="M300.606 74.6779C299.608 74.3198 298.688 73.792 297.846 73.0945C296.952 71.2323 296.845 69.174 297.525 66.9195C298.478 64.2697 300.019 61.9379 302.148 59.9244L303.119 59.1937L303.492 59.2463L303.909 58.6L304.698 58.0064C306.362 56.9759 308.129 56.5023 309.997 56.5856C311.902 56.6739 313.872 56.9342 315.908 57.3666L316.737 57.6465L320.966 41.5368L325.699 42.2057L325.579 43.0567L318.049 71.7728L318.421 71.8254L318.324 72.5168C317.581 73.6776 317.104 75.0025 316.894 76.4916L312.267 75.8377L312.365 75.1463L311.833 75.0712C310.512 75.4631 309.092 75.6602 307.573 75.6625L300.606 74.6779ZM308.101 73.4589C309.756 73.0057 311.409 72.317 313.058 71.3929L315.466 61.6438L314.456 61.501L313.868 59.5194C313.381 58.8719 312.747 58.4931 311.967 58.3828L309.568 59.2372L309.523 59.5563C308.152 60.3027 306.971 61.2388 305.98 62.3645L305.191 62.9581C303.538 64.9305 302.402 67.211 301.783 69.7996C301.765 70.9542 302.134 72.055 302.89 73.1021C303.392 73.6432 304.104 73.9789 305.026 74.1091L308.101 73.4589Z" fill="#8DB1C0"/>
<path d="M330.738 79.099C329.157 78.7671 327.748 78.116 326.511 77.1456L326.374 76.5837L325.918 76.3565C324.628 73.9683 324.424 71.3176 325.306 68.4045C326.137 65.846 327.547 63.6765 329.534 61.8961L333.117 59.9614C334.544 59.5845 336.073 59.5113 337.704 59.7418C339.371 59.9773 341.002 60.2078 342.597 60.4333C344.532 60.8152 346.068 61.8459 347.205 63.5254C347.647 64.492 347.788 65.5425 347.627 66.6771L346.249 69.1402L345.747 69.2321L345.277 69.8709L344.723 69.9553L344.336 70.3888C342.161 71.7087 339.843 72.5022 337.382 72.7692C334.926 73.0008 332.351 72.7996 329.656 72.1656L329.558 72.8569L330.315 75.9473L330.961 76.3641L331.046 76.9185L333.988 78.3649C336.676 78.2747 340.029 77.067 344.047 74.7417L349.457 75.9945L349.359 76.6859L349.147 77.0356C346.283 78.3667 343.337 79.2522 340.309 79.6923C337.282 80.1323 334.091 79.9345 330.738 79.099ZM335.396 70.6985C337.072 70.3567 338.681 69.7162 340.225 68.7771L342.606 66.5099L342.984 65.37L341.917 62.9409C341.111 61.9952 340.148 61.389 339.028 61.1222C337.261 61.3427 335.652 62.1097 334.201 63.4235L333.442 63.8044C331.52 65.8835 330.235 68.3237 329.586 71.125L331.82 71.4407L335.396 70.6985Z" fill="#8DB1C0"/>
<path d="M355.437 82.4268L352.427 81.4591L352.548 80.6082L357.494 81.3071L361.004 82.183C362.741 82.1753 364.328 81.6944 365.765 80.7402C366.412 80.2531 366.791 79.6195 366.901 78.8395L366.672 77.7765L366.246 77.3365C364.506 75.5718 362.441 74.3216 360.049 73.5859C357.658 72.8501 355.393 71.861 353.254 70.6185C352.782 69.8647 352.611 69.0269 352.742 68.105C353.13 66.8942 353.964 65.8548 355.244 64.987L356.033 64.3933C358.401 63.2453 360.886 62.5478 363.489 62.3008L370.509 63.2929L372.083 64.4375C372.555 65.1914 372.604 65.9939 372.231 66.8452L367.657 66.1988L367.336 64.6346L366.4 63.9599C364.001 64.3079 361.723 65.1975 359.568 66.6288L357.945 68.1352L357.43 69.4728L358.777 71.0736C360.951 72.0679 363.178 72.9431 365.458 73.6993C367.743 74.42 369.679 75.6881 371.267 77.5037C371.704 78.5057 371.789 79.5664 371.522 80.686L370.431 82.2676L369.527 82.5196L368.898 83.1358C367.42 83.614 365.822 83.7861 364.106 83.6519L355.437 82.4268Z" fill="#8DB1C0"/>
<path d="M377.773 85.5835L378.495 80.478C379.079 77.8844 379.705 75.3692 380.375 72.9325C381.085 70.4653 381.849 68.0056 382.665 65.5534L387.292 66.2073L387.074 67.7496C386.091 70.6122 385.197 73.6139 384.391 76.7548C383.621 79.9006 382.94 83.059 382.347 86.2299L377.773 85.5835ZM385.677 58.0594L385.7 57.8998L384.65 56.5037L384.695 56.1847L384.048 55.7678L383.964 55.2135L383.029 54.5388L383.012 53.5058L387.745 54.1748L389.419 56.1472L389.367 56.5194L389.823 56.7466L390.212 57.8323L390.531 57.8774L390.433 58.5687L385.677 58.0594Z" fill="#8DB1C0"/>
<path d="M393.51 94.3711L393.63 93.5202C398.904 94.5909 402.208 94.4973 403.543 93.2394C405.211 91.1607 406.46 88.8421 407.292 86.2836L406.973 86.2385L406.237 86.4598L405.842 86.9466C404.036 88.2102 402.1 88.8588 400.034 88.8923C397.999 88.9662 395.861 88.7365 393.622 88.2031L391.539 86.8237L391.447 86.3226L390.831 85.693C390.398 83.896 390.433 81.9843 390.936 79.958C391.546 78.1999 392.336 76.5757 393.306 75.0854C394.276 73.5952 395.381 72.1782 396.619 70.8344L399.161 68.5898L400.3 68.2083L400.686 67.7747C402.386 66.4961 404.297 65.8982 406.418 65.9811C408.581 66.0335 410.736 66.2658 412.884 66.6778L414.488 67.6096L415.577 69.4994C415.949 70.9623 415.961 72.5372 415.614 74.224L416.997 74.4194L416.734 76.2808C415.255 79.3264 413.935 82.5212 412.776 85.8651C411.621 89.1736 409.967 92.1765 407.814 94.8737C406.549 95.6352 405.175 96.0196 403.691 96.0269C400.303 95.6927 396.909 95.1408 393.51 94.3711ZM397.806 87.0042L401.655 85.4869L401.943 84.9851L403.203 84.5123L403.438 84.003L404.591 83.1353L404.963 83.1879C406.045 82.1837 407.115 81.1414 408.172 80.0612C409.264 78.986 410.189 77.8148 410.946 76.5477L410.414 76.4726L410.708 74.3985L411.206 72.4076C411.183 70.777 410.685 69.3143 409.711 68.0194L408.912 67.5269L404.821 69.2269L404.593 69.683L403.622 70.4137L402.461 71.3345L402.089 71.2819C400.486 72.8997 399.079 74.6717 397.866 76.5978C396.689 78.5289 395.809 80.6647 395.225 83.0051C395.156 84.261 395.51 85.4682 396.286 86.6267L397.616 87.1944L397.806 87.0042Z" fill="#8DB1C0"/>
<path d="M435.258 94.9008L435.378 94.0499C435.212 91.1333 435.116 88.2268 435.092 85.3303C435.102 82.4387 435.027 79.517 434.866 76.565L434.547 76.5199L434.335 76.8696L433.014 77.3881L432.392 78.3309L430.791 79.6778L430.419 79.6252C428.781 81.4912 427.26 83.4279 425.855 85.4353C424.486 87.4477 423.18 89.5234 421.937 91.6622L416.992 90.9632L417.382 88.1977L423.167 70.6805L427.953 71.357L427.833 72.2079L425.784 78.2649L426.103 78.31L426.937 77.3972L427.256 77.4423L427.938 76.4538L429.691 75.1827C430.986 74.2085 432.36 73.8241 433.814 74.0295C435.303 74.24 436.845 74.4579 438.441 74.6834C439.12 74.9963 439.518 75.5047 439.635 76.2084C439.873 79.3882 439.997 82.6061 440.007 85.8622C440.017 89.1183 439.976 92.3491 439.885 95.5547L435.258 94.9008Z" fill="#8DB1C0"/>
</svg>
