<svg width="239" height="35" viewBox="0 0 239 35" fill="none" xmlns="http://www.w3.org/2000/svg">
<path d="M10.9494 26.7844C9.7358 26.7844 8.60751 26.6138 7.56454 26.2724C6.54054 25.9121 5.64928 25.4096 4.89077 24.7649C4.13225 24.1201 3.55388 23.3711 3.15565 22.5178C3.00395 22.2144 2.99447 21.9394 3.12721 21.6929C3.27891 21.4274 3.52543 21.2473 3.86677 21.1524C4.13225 21.0766 4.38825 21.105 4.63477 21.2378C4.90025 21.3705 5.09936 21.5696 5.2321 21.8351C5.51654 22.385 5.93373 22.8781 6.48365 23.3142C7.03358 23.7504 7.6878 24.0917 8.44632 24.3382C9.20484 24.5658 10.0392 24.6796 10.9494 24.6796C11.9545 24.6796 12.8457 24.5184 13.6232 24.196C14.4007 23.8547 15.0075 23.3711 15.4437 22.7453C15.8988 22.1006 16.1263 21.3231 16.1263 20.4129C16.1263 19.2561 15.6997 18.2606 14.8463 17.4262C13.993 16.5919 12.6561 16.0609 10.8357 15.8333C8.61699 15.5679 6.88188 14.8852 5.63032 13.7853C4.37877 12.6665 3.75299 11.3012 3.75299 9.68933C3.75299 8.53259 4.05639 7.52755 4.66321 6.67422C5.28899 5.82089 6.14232 5.16666 7.22321 4.71155C8.3041 4.23748 9.54617 4.00044 10.9494 4.00044C11.9924 4.00044 12.9405 4.17111 13.7939 4.51244C14.6472 4.83481 15.3868 5.27096 16.0125 5.82089C16.6573 6.35185 17.1788 6.9397 17.577 7.58444C17.7666 7.88785 17.8235 8.18178 17.7477 8.46622C17.6908 8.75066 17.5296 8.96874 17.2641 9.12044C16.9797 9.25318 16.6857 9.27215 16.3823 9.17733C16.0979 9.08252 15.8798 8.90237 15.7281 8.63689C15.4437 8.20074 15.0834 7.79304 14.6472 7.41378C14.23 7.01555 13.718 6.70266 13.1112 6.47511C12.5044 6.24755 11.7743 6.12429 10.921 6.10533C9.42291 6.10533 8.21877 6.4277 7.30854 7.07244C6.39832 7.69822 5.94321 8.61792 5.94321 9.83155C5.94321 10.4763 6.11388 11.0736 6.45521 11.6236C6.79654 12.1545 7.35595 12.6191 8.13343 13.0173C8.92988 13.3966 9.9918 13.681 11.3192 13.8707C13.6896 14.212 15.4437 14.9421 16.5814 16.0609C17.7382 17.1607 18.3165 18.6019 18.3165 20.3844C18.3165 21.4084 18.1269 22.3187 17.7477 23.1151C17.3874 23.9116 16.8659 24.5847 16.1832 25.1347C15.5195 25.6656 14.7325 26.0733 13.8223 26.3578C12.9311 26.6422 11.9734 26.7844 10.9494 26.7844ZM29.1001 26.6422C27.64 26.6422 26.3315 26.3009 25.1748 25.6182C24.018 24.9166 23.0983 23.9684 22.4157 22.7738C21.752 21.5791 21.4201 20.2327 21.4201 18.7347C21.4201 17.2176 21.7614 15.8618 22.4441 14.6671C23.1457 13.4724 24.0939 12.5338 25.2885 11.8511C26.4832 11.1495 27.8296 10.7987 29.3277 10.7987C30.8257 10.7987 32.1626 11.1495 33.3383 11.8511C34.533 12.5338 35.4717 13.4724 36.1543 14.6671C36.856 15.8618 37.2163 17.2176 37.2352 18.7347L36.3534 19.4173C36.3534 20.7827 36.0311 22.0153 35.3863 23.1151C34.7605 24.196 33.8977 25.0588 32.7979 25.7036C31.717 26.3293 30.4844 26.6422 29.1001 26.6422ZM29.3277 24.6511C30.4275 24.6511 31.4041 24.3951 32.2574 23.8831C33.1297 23.3711 33.8124 22.6695 34.3054 21.7782C34.8174 20.868 35.0734 19.8535 35.0734 18.7347C35.0734 17.5969 34.8174 16.5824 34.3054 15.6911C33.8124 14.7999 33.1297 14.0982 32.2574 13.5862C31.4041 13.0553 30.4275 12.7898 29.3277 12.7898C28.2468 12.7898 27.2702 13.0553 26.3979 13.5862C25.5256 14.0982 24.8334 14.7999 24.3214 15.6911C23.8094 16.5824 23.5534 17.5969 23.5534 18.7347C23.5534 19.8535 23.8094 20.868 24.3214 21.7782C24.8334 22.6695 25.5256 23.3711 26.3979 23.8831C27.2702 24.3951 28.2468 24.6511 29.3277 24.6511ZM36.1259 26.5C35.8035 26.5 35.538 26.4052 35.3294 26.2156C35.1208 26.007 35.0165 25.7415 35.0165 25.4191V20.5551L35.557 18.308L37.2352 18.7347V25.4191C37.2352 25.7415 37.1309 26.007 36.9223 26.2156C36.7137 26.4052 36.4482 26.5 36.1259 26.5ZM47.9234 26.6422C46.4254 26.6422 45.098 26.3104 43.9412 25.6467C42.7845 24.964 41.8743 24.0253 41.2105 22.8307C40.5658 21.636 40.2434 20.2707 40.2434 18.7347C40.2434 17.1797 40.5848 15.8049 41.2674 14.6102C41.9501 13.4156 42.8888 12.4864 44.0834 11.8227C45.2781 11.14 46.634 10.7987 48.151 10.7987C49.687 10.7987 51.0428 11.14 52.2185 11.8227C53.4132 12.4864 54.3424 13.4156 55.0061 14.6102C55.6888 15.8049 56.0396 17.1797 56.0585 18.7347L54.7785 19.4173C54.7785 20.8206 54.4846 22.0721 53.8968 23.172C53.3089 24.2529 52.4935 25.1062 51.4505 25.732C50.4265 26.3388 49.2508 26.6422 47.9234 26.6422ZM48.2079 32.644C46.7098 32.644 45.3919 32.3596 44.2541 31.7907C43.1163 31.2407 42.1777 30.4822 41.4381 29.5151C41.2295 29.2876 41.1347 29.041 41.1537 28.7756C41.1916 28.5101 41.3338 28.292 41.5803 28.1213C41.8268 27.9507 42.1018 27.8938 42.4052 27.9507C42.7086 28.0076 42.9457 28.1498 43.1163 28.3773C43.6663 29.06 44.3679 29.6099 45.2212 30.0271C46.0935 30.4443 47.0985 30.6529 48.2363 30.6529C49.2983 30.6529 50.2559 30.3969 51.1092 29.8849C51.9625 29.3729 52.6357 28.6523 53.1288 27.7231C53.6408 26.7939 53.8968 25.7036 53.8968 24.452V20.1284L54.7217 18.4787L56.0585 18.7347V24.5373C56.0585 26.0733 55.7172 27.4481 55.0345 28.6618C54.3519 29.8944 53.4227 30.8615 52.247 31.5631C51.0713 32.2837 49.7249 32.644 48.2079 32.644ZM48.151 24.6511C49.2698 24.6511 50.2559 24.4046 51.1092 23.9116C51.9815 23.3996 52.6642 22.6979 53.1572 21.8067C53.6503 20.9154 53.8968 19.8914 53.8968 18.7347C53.8968 17.5779 53.6503 16.5539 53.1572 15.6627C52.6642 14.7524 51.9815 14.0508 51.1092 13.5578C50.2559 13.0458 49.2698 12.7898 48.151 12.7898C47.0322 12.7898 46.0366 13.0458 45.1643 13.5578C44.292 14.0508 43.6094 14.7524 43.1163 15.6627C42.6233 16.5539 42.3768 17.5779 42.3768 18.7347C42.3768 19.8914 42.6233 20.9154 43.1163 21.8067C43.6094 22.6979 44.292 23.3996 45.1643 23.9116C46.0366 24.4046 47.0322 24.6511 48.151 24.6511ZM66.7468 26.6422C65.2866 26.6422 63.9782 26.3009 62.8214 25.6182C61.6647 24.9166 60.745 23.9684 60.0623 22.7738C59.3986 21.5791 59.0668 20.2327 59.0668 18.7347C59.0668 17.2176 59.4081 15.8618 60.0908 14.6671C60.7924 13.4724 61.7405 12.5338 62.9352 11.8511C64.1299 11.1495 65.4763 10.7987 66.9743 10.7987C68.4724 10.7987 69.8093 11.1495 70.985 11.8511C72.1797 12.5338 73.1183 13.4724 73.801 14.6671C74.5026 15.8618 74.8629 17.2176 74.8819 18.7347L74.0001 19.4173C74.0001 20.7827 73.6777 22.0153 73.033 23.1151C72.4072 24.196 71.5444 25.0588 70.4445 25.7036C69.3637 26.3293 68.1311 26.6422 66.7468 26.6422ZM66.9743 24.6511C68.0742 24.6511 69.0508 24.3951 69.9041 23.8831C70.7764 23.3711 71.4591 22.6695 71.9521 21.7782C72.4641 20.868 72.7201 19.8535 72.7201 18.7347C72.7201 17.5969 72.4641 16.5824 71.9521 15.6911C71.4591 14.7999 70.7764 14.0982 69.9041 13.5862C69.0508 13.0553 68.0742 12.7898 66.9743 12.7898C65.8934 12.7898 64.9168 13.0553 64.0445 13.5862C63.1723 14.0982 62.4801 14.7999 61.9681 15.6911C61.4561 16.5824 61.2001 17.5969 61.2001 18.7347C61.2001 19.8535 61.4561 20.868 61.9681 21.7782C62.4801 22.6695 63.1723 23.3711 64.0445 23.8831C64.9168 24.3951 65.8934 24.6511 66.9743 24.6511ZM73.7725 26.5C73.4502 26.5 73.1847 26.4052 72.9761 26.2156C72.7675 26.007 72.6632 25.7415 72.6632 25.4191V20.5551L73.2037 18.308L74.8819 18.7347V25.4191C74.8819 25.7415 74.7776 26.007 74.569 26.2156C74.3604 26.4052 74.0949 26.5 73.7725 26.5ZM81.3888 33.2698C81.2371 33.2698 81.0664 33.2319 80.8768 33.156C80.232 32.8716 80.0519 32.4164 80.3363 31.7907L89.5239 11.5382C89.8083 10.9314 90.2634 10.7607 90.8892 11.0262C91.534 11.2917 91.7141 11.7373 91.4297 12.3631L82.2137 32.6156C82.024 33.0517 81.7491 33.2698 81.3888 33.2698ZM84.5461 26.0164C84.2617 26.1492 83.9962 26.1776 83.7497 26.1018C83.5031 26.007 83.304 25.8173 83.1523 25.5329L76.8092 12.3916C76.6765 12.1071 76.6575 11.8416 76.7523 11.5951C76.8471 11.3486 77.0368 11.159 77.3212 11.0262C77.6057 10.8935 77.8711 10.8745 78.1177 10.9693C78.3642 11.0452 78.5538 11.2253 78.6865 11.5098L84.9159 24.6511C85.0676 24.9356 85.115 25.201 85.0581 25.4476C85.0012 25.6941 84.8305 25.8837 84.5461 26.0164ZM100.641 26.6707C99.2951 26.6707 98.0909 26.3957 97.029 25.8458C95.9671 25.2769 95.1232 24.452 94.4974 23.3711C93.8906 22.2902 93.5872 20.9723 93.5872 19.4173V12.0218C93.5872 11.7184 93.6915 11.4624 93.9001 11.2538C94.1087 11.0452 94.3647 10.9409 94.6681 10.9409C94.9905 10.9409 95.256 11.0452 95.4646 11.2538C95.6731 11.4624 95.7774 11.7184 95.7774 12.0218V19.4173C95.7774 20.593 95.9955 21.5601 96.4317 22.3187C96.8868 23.0772 97.4936 23.6461 98.2521 24.0253C99.0296 24.4046 99.9019 24.5942 100.869 24.5942C101.798 24.5942 102.633 24.4141 103.372 24.0538C104.131 23.6935 104.728 23.2004 105.164 22.5747C105.6 21.9489 105.818 21.2378 105.818 20.4413H107.383C107.326 21.636 106.994 22.7074 106.387 23.6556C105.799 24.5847 105.003 25.3243 103.998 25.8742C102.993 26.4052 101.874 26.6707 100.641 26.6707ZM106.899 26.5C106.577 26.5 106.311 26.4052 106.103 26.2156C105.913 26.007 105.818 25.732 105.818 25.3907V12.0218C105.818 11.6994 105.913 11.4434 106.103 11.2538C106.311 11.0452 106.577 10.9409 106.899 10.9409C107.222 10.9409 107.487 11.0452 107.696 11.2538C107.904 11.4434 108.009 11.6994 108.009 12.0218V25.3907C108.009 25.732 107.904 26.007 107.696 26.2156C107.487 26.4052 107.222 26.5 106.899 26.5ZM113.605 16.9142C113.662 15.7385 113.966 14.6861 114.515 13.7569C115.084 12.8277 115.814 12.0976 116.706 11.5667C117.616 11.0357 118.621 10.7702 119.721 10.7702C120.593 10.7702 121.266 10.8935 121.74 11.14C122.214 11.3865 122.395 11.7468 122.281 12.2209C122.205 12.5053 122.072 12.695 121.883 12.7898C121.712 12.8846 121.494 12.9225 121.228 12.9036C120.982 12.8846 120.697 12.8656 120.375 12.8467C119.313 12.7519 118.365 12.8656 117.531 13.188C116.715 13.4914 116.061 13.9655 115.568 14.6102C115.094 15.255 114.857 16.023 114.857 16.9142H113.605ZM113.776 26.5C113.435 26.5 113.169 26.4052 112.979 26.2156C112.79 26.0259 112.695 25.7604 112.695 25.4191V12.0218C112.695 11.6804 112.79 11.415 112.979 11.2253C113.169 11.0357 113.435 10.9409 113.776 10.9409C114.117 10.9409 114.383 11.0357 114.572 11.2253C114.762 11.415 114.857 11.6804 114.857 12.0218V25.4191C114.857 25.7604 114.762 26.0259 114.572 26.2156C114.383 26.4052 114.117 26.5 113.776 26.5ZM126.861 26.5C126.519 26.5 126.244 26.4052 126.036 26.2156C125.846 26.007 125.751 25.732 125.751 25.3907V12.0502C125.751 11.7089 125.846 11.4434 126.036 11.2538C126.244 11.0452 126.519 10.9409 126.861 10.9409C127.183 10.9409 127.439 11.0452 127.629 11.2538C127.837 11.4434 127.941 11.7089 127.941 12.0502V25.3907C127.941 25.732 127.837 26.007 127.629 26.2156C127.439 26.4052 127.183 26.5 126.861 26.5ZM126.832 7.98266C126.415 7.98266 126.055 7.83096 125.751 7.52755C125.448 7.22415 125.296 6.85437 125.296 6.41822C125.296 5.94415 125.448 5.57437 125.751 5.30889C126.074 5.02444 126.443 4.88222 126.861 4.88222C127.259 4.88222 127.61 5.02444 127.913 5.30889C128.235 5.57437 128.397 5.94415 128.397 6.41822C128.397 6.85437 128.245 7.22415 127.941 7.52755C127.638 7.83096 127.268 7.98266 126.832 7.98266ZM142.392 26.5C142.07 26.5 141.804 26.3957 141.596 26.1871C141.387 25.9785 141.283 25.713 141.283 25.3907V5.39422C141.283 5.07185 141.387 4.80637 141.596 4.59777C141.804 4.38918 142.07 4.28489 142.392 4.28489H147.512C149.143 4.28489 150.632 4.55985 151.978 5.10978C153.343 5.64074 154.519 6.40874 155.505 7.41378C156.491 8.39985 157.25 9.56607 157.781 10.9124C158.33 12.2588 158.605 13.7474 158.605 15.3782C158.605 17.009 158.33 18.5071 157.781 19.8724C157.25 21.2188 156.491 22.3945 155.505 23.3996C154.519 24.3856 153.343 25.1536 151.978 25.7036C150.632 26.2345 149.143 26.5 147.512 26.5H142.392ZM143.501 24.5089H147.512C149.257 24.5089 150.793 24.1201 152.12 23.3427C153.466 22.5462 154.519 21.4653 155.277 20.1C156.036 18.7157 156.415 17.1418 156.415 15.3782C156.415 13.6147 156.036 12.0502 155.277 10.6849C154.519 9.30059 153.466 8.2197 152.12 7.44222C150.793 6.66474 149.257 6.276 147.512 6.276H143.501V24.5089ZM169.515 26.6422C167.979 26.6422 166.613 26.3104 165.419 25.6467C164.243 24.964 163.314 24.0253 162.631 22.8307C161.968 21.636 161.636 20.2707 161.636 18.7347C161.636 17.1797 161.949 15.8144 162.574 14.6387C163.219 13.444 164.101 12.5053 165.22 11.8227C166.338 11.14 167.628 10.7987 169.088 10.7987C170.529 10.7987 171.781 11.1305 172.843 11.7942C173.924 12.439 174.758 13.3397 175.346 14.4964C175.934 15.6532 176.228 16.9711 176.228 18.4502C176.228 18.7536 176.133 19.0001 175.943 19.1898C175.754 19.3604 175.507 19.4458 175.204 19.4458H163.115V17.6253H175.431L174.208 18.5071C174.227 17.4073 174.028 16.4212 173.611 15.5489C173.194 14.6766 172.596 13.9939 171.819 13.5009C171.06 13.0079 170.15 12.7613 169.088 12.7613C168.007 12.7613 167.059 13.0173 166.244 13.5293C165.428 14.0413 164.793 14.7524 164.338 15.6627C163.902 16.5539 163.684 17.5779 163.684 18.7347C163.684 19.8914 163.93 20.9154 164.423 21.8067C164.935 22.6979 165.627 23.3996 166.5 23.9116C167.372 24.4236 168.377 24.6796 169.515 24.6796C170.197 24.6796 170.88 24.5658 171.563 24.3382C172.264 24.0917 172.824 23.7883 173.241 23.428C173.45 23.2573 173.687 23.172 173.952 23.172C174.218 23.153 174.445 23.2194 174.635 23.3711C174.881 23.5987 175.005 23.8452 175.005 24.1107C175.024 24.3761 174.919 24.6037 174.692 24.7933C174.066 25.3243 173.269 25.7699 172.302 26.1302C171.335 26.4716 170.406 26.6422 169.515 26.6422ZM184.939 26.6422C183.82 26.6422 182.711 26.4526 181.611 26.0733C180.511 25.6941 179.62 25.1252 178.937 24.3667C178.729 24.1391 178.643 23.8831 178.681 23.5987C178.719 23.3142 178.861 23.0677 179.108 22.8591C179.373 22.6695 179.648 22.5936 179.933 22.6316C180.217 22.6695 180.454 22.7927 180.644 23.0013C181.099 23.5323 181.696 23.94 182.436 24.2244C183.194 24.5089 184.029 24.6511 184.939 24.6511C186.342 24.6511 187.357 24.4141 187.983 23.94C188.608 23.447 188.931 22.8591 188.95 22.1764C188.95 21.4938 188.627 20.9344 187.983 20.4982C187.338 20.0431 186.276 19.6923 184.797 19.4458C182.882 19.1424 181.478 18.6114 180.587 17.8529C179.696 17.0944 179.25 16.1936 179.25 15.1507C179.25 14.1836 179.506 13.3776 180.018 12.7329C180.53 12.0881 181.213 11.6046 182.066 11.2822C182.919 10.9598 183.858 10.7987 184.882 10.7987C186.153 10.7987 187.243 11.0167 188.153 11.4529C189.082 11.889 189.831 12.4769 190.4 13.2164C190.59 13.463 190.666 13.719 190.628 13.9844C190.59 14.2499 190.438 14.468 190.173 14.6387C189.945 14.7714 189.68 14.8188 189.376 14.7809C189.092 14.724 188.845 14.5818 188.637 14.3542C188.163 13.8043 187.613 13.4061 186.987 13.1596C186.361 12.8941 185.641 12.7613 184.825 12.7613C183.782 12.7613 182.948 12.9794 182.322 13.4156C181.696 13.8327 181.383 14.3637 181.383 15.0084C181.383 15.4446 181.497 15.8239 181.725 16.1462C181.971 16.4686 182.379 16.753 182.948 16.9996C183.536 17.2461 184.351 17.4547 185.394 17.6253C186.816 17.8529 187.935 18.1942 188.751 18.6493C189.585 19.0855 190.173 19.607 190.514 20.2138C190.874 20.8016 191.055 21.4464 191.055 22.148C191.055 23.0393 190.789 23.8262 190.258 24.5089C189.746 25.1726 189.026 25.6941 188.096 26.0733C187.186 26.4526 186.134 26.6422 184.939 26.6422ZM195.977 26.5C195.636 26.5 195.361 26.4052 195.152 26.2156C194.963 26.007 194.868 25.732 194.868 25.3907V12.0502C194.868 11.7089 194.963 11.4434 195.152 11.2538C195.361 11.0452 195.636 10.9409 195.977 10.9409C196.3 10.9409 196.556 11.0452 196.745 11.2538C196.954 11.4434 197.058 11.7089 197.058 12.0502V25.3907C197.058 25.732 196.954 26.007 196.745 26.2156C196.556 26.4052 196.3 26.5 195.977 26.5ZM195.949 7.98266C195.532 7.98266 195.171 7.83096 194.868 7.52755C194.564 7.22415 194.413 6.85437 194.413 6.41822C194.413 5.94415 194.564 5.57437 194.868 5.30889C195.19 5.02444 195.56 4.88222 195.977 4.88222C196.375 4.88222 196.726 5.02444 197.03 5.30889C197.352 5.57437 197.513 5.94415 197.513 6.41822C197.513 6.85437 197.362 7.22415 197.058 7.52755C196.755 7.83096 196.385 7.98266 195.949 7.98266ZM209.063 26.6422C207.565 26.6422 206.238 26.3104 205.081 25.6467C203.924 24.964 203.014 24.0253 202.351 22.8307C201.706 21.636 201.383 20.2707 201.383 18.7347C201.383 17.1797 201.725 15.8049 202.407 14.6102C203.09 13.4156 204.029 12.4864 205.223 11.8227C206.418 11.14 207.774 10.7987 209.291 10.7987C210.827 10.7987 212.183 11.14 213.359 11.8227C214.553 12.4864 215.482 13.4156 216.146 14.6102C216.829 15.8049 217.18 17.1797 217.199 18.7347L215.919 19.4173C215.919 20.8206 215.625 22.0721 215.037 23.172C214.449 24.2529 213.634 25.1062 212.591 25.732C211.567 26.3388 210.391 26.6422 209.063 26.6422ZM209.348 32.644C207.85 32.644 206.532 32.3596 205.394 31.7907C204.256 31.2407 203.318 30.4822 202.578 29.5151C202.37 29.2876 202.275 29.041 202.294 28.7756C202.332 28.5101 202.474 28.292 202.72 28.1213C202.967 27.9507 203.242 27.8938 203.545 27.9507C203.849 28.0076 204.086 28.1498 204.256 28.3773C204.806 29.06 205.508 29.6099 206.361 30.0271C207.234 30.4443 208.239 30.6529 209.376 30.6529C210.438 30.6529 211.396 30.3969 212.249 29.8849C213.103 29.3729 213.776 28.6523 214.269 27.7231C214.781 26.7939 215.037 25.7036 215.037 24.452V20.1284L215.862 18.4787L217.199 18.7347V24.5373C217.199 26.0733 216.857 27.4481 216.175 28.6618C215.492 29.8944 214.563 30.8615 213.387 31.5631C212.211 32.2837 210.865 32.644 209.348 32.644ZM209.291 24.6511C210.41 24.6511 211.396 24.4046 212.249 23.9116C213.122 23.3996 213.804 22.6979 214.297 21.8067C214.79 20.9154 215.037 19.8914 215.037 18.7347C215.037 17.5779 214.79 16.5539 214.297 15.6627C213.804 14.7524 213.122 14.0508 212.249 13.5578C211.396 13.0458 210.41 12.7898 209.291 12.7898C208.172 12.7898 207.177 13.0458 206.304 13.5578C205.432 14.0508 204.749 14.7524 204.256 15.6627C203.763 16.5539 203.517 17.5779 203.517 18.7347C203.517 19.8914 203.763 20.9154 204.256 21.8067C204.749 22.6979 205.432 23.3996 206.304 23.9116C207.177 24.4046 208.172 24.6511 209.291 24.6511ZM234.372 26.5C234.05 26.5 233.784 26.3957 233.576 26.1871C233.367 25.9785 233.263 25.7225 233.263 25.4191V18.0236C233.263 16.8479 233.035 15.8807 232.58 15.1222C232.144 14.3637 231.537 13.7948 230.76 13.4156C230.001 13.0363 229.138 12.8467 228.171 12.8467C227.242 12.8467 226.398 13.0268 225.64 13.3871C224.9 13.7474 224.312 14.2404 223.876 14.8662C223.44 15.492 223.222 16.2031 223.222 16.9996H221.657C221.695 15.8049 222.018 14.743 222.625 13.8138C223.231 12.8656 224.037 12.1261 225.042 11.5951C226.047 11.0452 227.166 10.7702 228.399 10.7702C229.745 10.7702 230.949 11.0547 232.011 11.6236C233.073 12.1735 233.908 12.9889 234.514 14.0698C235.14 15.1507 235.453 16.4686 235.453 18.0236V25.4191C235.453 25.7225 235.349 25.9785 235.14 26.1871C234.932 26.3957 234.676 26.5 234.372 26.5ZM222.141 26.5C221.8 26.5 221.525 26.4052 221.316 26.2156C221.126 26.007 221.032 25.7415 221.032 25.4191V12.0502C221.032 11.7089 221.126 11.4434 221.316 11.2538C221.525 11.0452 221.8 10.9409 222.141 10.9409C222.463 10.9409 222.719 11.0452 222.909 11.2538C223.118 11.4434 223.222 11.7089 223.222 12.0502V25.4191C223.222 25.7415 223.118 26.007 222.909 26.2156C222.719 26.4052 222.463 26.5 222.141 26.5Z" fill="#2A4A58"/>
</svg>
