<svg width="78" height="39" viewBox="0 0 78 39" fill="none" xmlns="http://www.w3.org/2000/svg">
<path d="M4.83466 33.1916L4.46433 28.5579C4.51022 25.8634 4.57013 23.1808 4.64406 20.5102C4.71592 17.8136 4.64189 15.0895 4.42197 12.3379L4.23358 11.4516L7.73803 11.1715L8.17683 16.6618L8.15072 32.0253L10.7596 31.8168C12.5757 31.332 14.3155 30.7096 15.979 29.9497C17.6425 29.1897 19.1643 28.1276 20.5443 26.7633L20.6814 26.5173L22.0086 24.491L22.2393 22.4741C21.9974 21.7358 21.6029 21.0489 21.0557 20.4134C19.5159 19.1257 17.7528 18.6396 15.7665 18.9551C14.807 19.3714 13.7925 19.7529 12.723 20.0997C11.6514 20.4204 10.5253 20.5496 9.34467 20.4872L9.29488 19.8642C10.6053 19.2631 11.8296 18.5644 12.9677 17.7681C14.1297 16.9437 15.2615 16.0695 16.3633 15.1455L16.449 14.7467C17.395 13.8351 18.111 12.8244 18.597 11.7144L18.6018 10.3033L17.6363 9.00891C16.193 7.94864 14.5598 7.45218 12.7364 7.51953C11.3273 7.86727 9.95357 8.32975 8.61509 8.90697C7.27662 9.48419 6.0103 10.1471 4.81614 10.8956L4.83792 11.1682L1.21666 11.4576L1.16686 10.8346C3.14399 9.4226 5.31993 8.37352 7.69469 7.68736C10.0933 6.97316 12.5838 6.59124 15.1662 6.5416C17.0955 6.49191 18.8492 6.86118 20.4275 7.64941L20.4461 7.88304L21.3526 8.43758C21.9059 9.15097 22.1842 10.017 22.1872 11.0356C22.1041 11.9566 21.794 12.8174 21.2571 13.6179L20.916 13.7627L20.5889 14.5726L19.7696 15.1083L19.5281 15.5195L16.8272 18.0082C18.0732 17.9086 19.2616 17.9051 20.3924 17.9976C21.547 18.0621 22.6565 18.3783 23.7207 18.9464L25.3622 20.8529L25.8028 22.9338C25.7145 24.1165 25.3702 25.202 24.7699 26.1905L24.4288 26.3353L23.7668 27.3679L23.0192 27.8195L22.8167 28.2276C20.2819 30.1805 17.4575 31.4513 14.3434 32.0398C11.2553 32.6262 8.08574 33.0101 4.83466 33.1916ZM31.0651 31.4087L30.1072 30.7015C29.7408 29.0588 29.5271 27.3647 29.4659 25.6193C29.568 21.6663 29.7905 17.9127 30.1334 14.3584C30.4743 10.7782 30.9055 7.34754 31.427 4.0664L34.6588 3.8081L34.8659 4.92797C34.389 8.44067 33.9386 12.1211 33.5147 15.9692C33.1146 19.7892 32.9637 23.7853 33.0621 27.9574L33.6912 29.9448L36.6987 29.822L36.7485 30.445C35.0487 31.0773 33.1542 31.3985 31.0651 31.4087ZM44.0907 30.1325C43.1656 29.9975 42.3396 29.6324 41.6128 29.0374C40.398 27.567 39.8375 25.7831 39.9311 23.6856C39.9976 22.5569 40.222 21.4418 40.6042 20.3401C40.9843 19.2125 41.5025 18.1783 42.1588 17.2377L43.6822 15.7052L45.2647 14.9125L50.5214 14.4924L52.1801 15.1436L52.205 15.4551C52.9516 15.317 53.5554 15.517 54.0164 16.0549C55.2373 17.6031 55.8254 19.5677 55.7806 21.9487C55.6475 23.5529 55.1236 25.0055 54.2087 26.3065L53.8738 26.5292L53.7881 26.9279L53.0405 27.3795L52.8411 27.8265C51.8068 28.6146 50.7201 29.237 49.581 29.6937L44.0907 30.1325ZM48.5968 28.1657C50.1835 27.0984 51.2806 25.6261 51.8882 23.7489C52.286 22.5153 52.3458 21.139 52.0676 19.6199C51.7967 18.5182 51.2516 17.582 50.4324 16.8115C49.4928 16.4948 48.5868 16.11 47.7146 15.6572L46.4078 16.467L46.2894 16.9467C45.4452 17.8241 44.78 18.8177 44.294 19.9277C43.6023 21.7333 43.3784 23.6714 43.6223 25.7418C43.9368 26.7356 44.4616 27.5819 45.1967 28.2807C45.7335 28.7864 46.3425 29.0513 47.0236 29.0752L48.5968 28.1657ZM62.5954 33.6696L62.5456 33.0465C66.4581 32.969 68.7882 32.3778 69.5359 31.2731C70.3896 29.5329 70.9084 27.6888 71.0923 25.7409L70.8587 25.7595L70.3711 26.0336L70.1686 26.4417C69.0876 27.6253 67.8166 28.3931 66.3556 28.745C64.9227 29.1207 63.3693 29.2971 61.6955 29.2742L59.9978 28.6261L59.853 28.285L59.3157 27.9361C58.7229 26.7294 58.4442 25.3671 58.4796 23.849C58.6334 22.5044 58.9362 21.2262 59.388 20.0145C59.8397 18.8028 60.3985 17.6217 61.0641 16.4713L62.5112 14.4746L63.2589 14.023L63.4645 13.6539C64.4676 12.4765 65.7288 11.7487 67.2479 11.4705C68.7909 11.1643 70.3573 10.9869 71.947 10.9382L73.2335 11.3448L74.3065 12.5131C74.8028 13.4923 75.0617 14.608 75.0834 15.8602L76.0958 15.7793L76.2048 17.1422C75.6387 19.5386 75.2096 22.0156 74.9177 24.573C74.6236 27.1045 73.9267 29.4983 72.8269 31.7546C72.0502 32.4959 71.1359 32.987 70.084 33.2278C67.6262 33.5287 65.13 33.676 62.5954 33.6696ZM64.4742 27.7589L66.9648 26.0707L67.0895 25.6689L67.9088 25.1332L67.9945 24.7345L68.6752 23.9355L68.9477 23.9137C69.5563 23.0291 70.1498 22.1195 70.7282 21.1851C71.3326 20.2485 71.803 19.2704 72.1395 18.2508L71.7502 18.2819L71.6288 16.7633L71.6663 15.2712C71.3912 14.1176 70.8051 13.1586 69.9081 12.3943L69.2633 12.1716L66.6293 14.0279L66.5405 14.3877L65.9673 15.0605L65.2897 15.8984L65.0172 15.9202C64.1365 17.3229 63.4189 18.8041 62.8643 20.3636C62.3357 21.9211 62.05 23.5768 62.0073 25.3305C62.1578 26.2329 62.6006 27.0335 63.3357 27.7323L64.3699 27.924L64.4742 27.7589Z" fill="#8DB1C0"/>
</svg>
