<svg width="131" height="38" viewBox="0 0 131 38" fill="none" xmlns="http://www.w3.org/2000/svg">
<path d="M11.7731 35.8827C10.1834 35.9314 8.65597 35.7791 7.19089 35.426C5.75176 35.0707 4.33134 34.6226 2.92961 34.0815L2.75055 33.3121L6.13819 33.0413C7.43816 33.6167 8.76669 34.0591 10.1238 34.3686C11.5068 34.6761 12.9444 34.8486 14.4365 34.8861C15.8456 34.5383 17.0938 33.8116 18.181 32.7058C18.9391 31.7309 19.3072 30.6173 19.2855 29.365C18.8215 27.8085 17.8778 26.4601 16.4543 25.3199L16.0244 24.8448C14.0236 23.6724 11.8821 22.8639 9.59983 22.4193C7.34146 21.9466 5.13138 21.2612 2.96961 20.3628C2.33835 19.6557 2.06014 18.7897 2.13498 17.7648L3.10548 15.6887L3.48552 15.5408L4.14444 14.4692L4.94196 13.661C6.21713 12.6186 7.56965 11.7267 8.99951 10.9854C10.4553 10.2421 12.0207 9.72512 13.6956 9.43451L18.7965 9.02684L20.5892 9.39299L21.0066 9.71232L21.0688 10.4911L17.6812 10.7618C17.134 10.1263 16.4124 9.92275 15.5163 10.1511C14.265 10.5124 13.0771 11.0122 11.9525 11.6507C10.8279 12.2892 9.72049 12.9786 8.63017 13.7189L8.38872 14.13C7.20908 15.0603 6.3347 16.2144 5.76558 17.5922L5.72968 18.6139L6.17819 19.3226C8.42614 20.3186 10.7582 21.0596 13.1744 21.5458C15.6166 22.0298 17.9035 23.0227 20.0351 24.5243L20.7079 25.0975C22.1781 26.4952 22.8726 28.3207 22.7914 30.5739C22.6003 31.4513 22.2482 32.2763 21.7352 33.0488L20.9019 33.8991C19.716 34.7515 18.3734 35.2768 16.874 35.475L11.7731 35.8827ZM31.2313 34.6802C30.057 34.6957 28.9537 34.4573 27.9216 33.9651L27.7348 33.5881L27.375 33.4993C26.0803 32.0092 25.5145 30.1604 25.6777 27.9528C25.8617 26.0049 26.5175 24.2413 27.6453 22.6621L29.8805 20.72C30.8337 20.2258 31.9074 19.931 33.1015 19.8356C34.3216 19.7381 35.5157 19.6427 36.6838 19.5493C38.1178 19.5131 39.3716 20.0007 40.4451 21.0121C40.9124 21.6279 41.1792 22.3511 41.2455 23.1818L40.6582 25.1489L40.3171 25.2937L40.085 25.8217L39.7049 25.9696L39.4993 26.3388C38.1649 27.621 36.6458 28.5523 34.9418 29.1326C33.2357 29.687 31.376 29.9531 29.3627 29.9312L29.4031 30.4374L30.4309 32.5105L30.9558 32.7037L31.1037 33.0837L33.4213 33.6431C35.3153 33.1521 37.5032 31.7624 39.985 29.4741L44.0237 29.504L44.0641 30.0102L43.9691 30.2921C42.1477 31.6917 40.1976 32.788 38.1188 33.5811C36.0399 34.3743 33.7441 34.7406 31.2313 34.6802ZM33.2037 27.9783C34.3386 27.4696 35.3791 26.7595 36.3251 25.8479L37.6554 23.8606L37.7427 22.9915L36.5996 21.437C35.8769 20.8939 35.0972 20.6166 34.2602 20.6051C33.0412 21.0422 32.0209 21.8421 31.1995 23.005L30.7213 23.3959C29.688 25.1766 29.1635 27.1126 29.1478 29.2038L30.7832 29.0731L33.2037 27.9783ZM45.6416 33.5677L45.4611 31.3093C45.6056 28.8681 45.7631 26.426 45.9336 23.9827C46.1301 21.5374 46.4724 19.1197 46.9606 16.7294L50.3093 16.4618L50.3715 17.2406L49.756 21.7963L49.9896 21.7776L51.6999 19.6424L52.9818 18.521C53.6745 17.7081 54.5779 17.244 55.692 17.1288C56.8301 16.9856 57.9442 16.8704 59.0345 16.7833L59.5718 17.1322L59.866 19.3424L60.0013 22.5057L56.4968 22.7858L56.2448 19.6318L56.3211 19.1163L56.0875 19.1349L55.0205 20.004C54.062 21.4129 52.8906 23.1002 51.5064 25.0656C50.931 26.3656 50.4486 27.6843 50.0591 29.0216C49.6676 30.333 49.399 31.713 49.2536 33.1615L45.6416 33.5677ZM66.9643 31.6676L65.9909 30.7657C65.2393 28.553 64.5614 26.282 63.9573 23.953C63.3511 21.598 62.7859 19.2658 62.2617 16.9564L65.6493 16.6857L69.0049 28.7614L69.2385 28.7428C70.3434 26.878 71.3814 24.9924 72.3524 23.0861C73.3473 21.1517 74.1413 19.155 74.7343 17.096L78.2388 16.816L78.2886 17.439C77.6176 19.5042 76.7847 21.504 75.7898 23.4384C74.8188 25.3447 73.784 27.2692 72.6853 29.2119L71.8706 30.2958L71.637 30.3145L71.5481 30.6743C70.2522 31.4571 68.7243 31.7882 66.9643 31.6676ZM84.256 30.3248L83.9573 26.5867C83.9595 24.6533 84.0048 22.7687 84.0932 20.9329C84.2055 19.0691 84.3567 17.2022 84.5469 15.3321L87.9345 15.0614L88.0248 16.1906C87.7816 18.3784 87.6236 20.6508 87.5507 23.0078C87.5038 25.3628 87.5218 27.7126 87.6047 30.0572L84.256 30.3248ZM85.4943 9.53509L85.485 9.41828L84.5178 8.59427L84.4991 8.36064L83.9743 8.16747L83.8263 7.78742L83.0554 7.45716L82.8794 6.72667L86.3449 6.4497L87.8463 7.5837L87.8681 7.85626L88.2279 7.94507L88.6764 8.65378L88.91 8.63511L88.9505 9.14131L85.4943 9.53509ZM97.5729 29.2605L95.6448 28.6701L94.1419 27.0268C93.6269 25.8139 93.3093 24.4547 93.189 22.9491C93.9691 19.3077 95.6779 16.6631 98.3154 15.0155L101.233 13.7634L106.334 13.3558L107.62 13.7624L108.041 14.1206C108.535 15.0739 108.751 16.1408 108.688 17.3214L108.071 19.4084L104.606 19.6854L104.556 19.0624C104.975 18.0884 105.18 17.0662 105.173 15.9957L104.334 14.8088L103.3 14.6171C101.833 15.2307 100.479 16.0965 99.2357 17.2147L98.6625 17.8876C97.6656 19.1428 97.0545 20.1583 96.8291 20.9339C96.6016 21.6836 96.6 22.8071 96.8241 24.3044C97.1428 25.3501 97.6412 26.3552 98.3191 27.3199L100.503 28.1642C101.819 27.641 103.047 26.9812 104.185 26.1849C105.347 25.3606 106.772 25.0507 108.46 25.2554L108.51 25.8784C107.725 26.5159 106.843 27.0828 105.864 27.579C104.911 28.0732 103.938 28.4905 102.946 28.8311L97.5729 29.2605ZM117.207 27.8089C116.033 27.8243 114.93 27.586 113.897 27.0937L113.711 26.7168L113.351 26.628C112.056 25.1378 111.49 23.289 111.654 21.0815C111.838 19.1336 112.493 17.37 113.621 15.7907L115.856 13.8487C116.81 13.3545 117.883 13.0597 119.077 12.9642C120.297 12.8667 121.492 12.7713 122.66 12.6779C124.094 12.6417 125.347 13.1293 126.421 14.1407C126.888 14.7565 127.155 15.4798 127.221 16.3104L126.634 18.2775L126.293 18.4224L126.061 18.9504L125.681 19.0983L125.475 19.4674C124.141 20.7497 122.622 21.6809 120.918 22.2613C119.212 22.8156 117.352 23.0818 115.339 23.0598L115.379 23.566L116.407 25.6392L116.932 25.8323L117.08 26.2124L119.397 26.7717C121.291 26.2807 123.479 24.8911 125.961 22.6027L130 22.6326L130.04 23.1388L129.945 23.4207C128.124 24.8203 126.173 25.9166 124.095 26.7098C122.016 27.5029 119.72 27.8693 117.207 27.8089ZM119.18 21.107C120.314 20.5983 121.355 19.8881 122.301 18.9765L123.631 16.9892L123.719 16.1202L122.575 14.5657C121.853 14.0225 121.073 13.7452 120.236 13.7338C119.017 14.1708 117.997 14.9708 117.175 16.1337L116.697 16.5246C115.664 18.3053 115.139 20.2412 115.124 22.3324L116.759 22.2017L119.18 21.107Z" fill="#8DB1C0"/>
</svg>
