<svg width="101" height="36" viewBox="0 0 101 36" fill="none" xmlns="http://www.w3.org/2000/svg">
<path d="M17.1964 34.5322L17.0657 32.8968L16.3072 32.7223C15.5451 31.686 14.8448 30.6055 14.2063 29.481C13.5678 28.3564 12.9953 27.2396 12.4886 26.1306L12.1257 26.0029L9.73745 33.8744L9.23126 33.9149L9.26238 34.3042L5.87474 34.575C4.97585 30.5191 4.12887 26.4591 3.33381 22.3949C2.53667 18.3048 1.80236 14.1836 1.13087 10.0312L4.62598 9.63425C5.12624 12.6247 5.63947 15.6142 6.16568 18.6026C6.68982 21.565 7.36348 24.4372 8.18668 27.219C8.51488 26.0955 8.88306 24.9819 9.29122 23.8782C9.6973 22.7485 10.1553 21.6146 10.6652 20.4766L14.0529 20.2059L14.112 20.9457L13.9967 21.4644L17.5831 28.5841L17.8557 28.5623C18.4987 25.167 19.1417 21.7716 19.7847 18.3763C20.4516 14.9529 21.0286 11.5497 21.5159 8.16682L25.0203 7.88674L25.0701 8.50975C24.398 12.8479 23.6189 17.1555 22.7328 21.4323C21.8707 25.6812 21.1025 29.9617 20.4283 34.2739L17.1964 34.5322ZM33.4789 32.3296C32.5538 32.1946 31.7278 31.8295 31.001 31.2345C29.7862 29.7641 29.2257 27.9802 29.3193 25.8827C29.3858 24.754 29.6102 23.6388 29.9924 22.5372C30.3725 21.4096 30.8907 20.3754 31.547 19.4347L33.0704 17.9022L34.6529 17.1096L39.9096 16.6895L41.5683 17.3406L41.5932 17.6521C42.3398 17.5141 42.9436 17.714 43.4045 18.2519C44.6255 19.8002 45.2136 21.7648 45.1688 24.1457C45.0357 25.75 44.5118 27.2026 43.5969 28.5036L43.262 28.7263L43.1763 29.125L42.4287 29.5766L42.2293 30.0236C41.195 30.8116 40.1083 31.434 38.9692 31.8908L33.4789 32.3296ZM37.985 30.3628C39.5717 29.2955 40.6688 27.8232 41.2764 25.9459C41.6742 24.7124 41.734 23.3361 41.4558 21.8169C41.1849 20.7152 40.6398 19.7791 39.8206 19.0086C38.8809 18.6918 37.975 18.3071 37.1028 17.8543L35.796 18.6641L35.6776 19.1438C34.8334 20.0211 34.1682 21.0148 33.6822 22.1247C32.9905 23.9304 32.7666 25.8684 33.0104 27.9389C33.325 28.9326 33.8498 29.7789 34.5849 30.4778C35.1217 30.9835 35.7307 31.2483 36.4118 31.2723L37.985 30.3628ZM48.1929 31.5847L48.0124 29.3263C48.1569 26.8851 48.3144 24.4429 48.4849 21.9997C48.6813 19.5544 49.0237 17.1367 49.5119 14.7464L52.8606 14.4788L52.9228 15.2575L52.3072 19.8133L52.5409 19.7946L54.2512 17.6593L55.5331 16.538C56.2258 15.7251 57.1292 15.261 58.2433 15.1458C59.3814 15.0026 60.4955 14.8874 61.5858 14.8003L62.1231 15.1492L62.4173 17.3594L62.5526 20.5227L59.0481 20.8028L58.796 17.6488L58.8724 17.1333L58.6388 17.1519L57.5718 18.021C56.6133 19.4299 55.4419 21.1171 54.0576 23.0826C53.4823 24.3826 52.9999 25.7013 52.6104 27.0386C52.2188 28.35 51.9503 29.73 51.8048 31.1785L48.1929 31.5847ZM65.8678 30.1329L65.7682 28.8869L65.474 26.6767C65.3487 22.8203 65.4035 18.7666 65.6385 14.5156C65.8974 10.2366 66.3899 6.26545 67.1159 2.60221L70.6204 2.32212L70.6702 2.94514C70.0594 5.76317 69.6252 8.82834 69.3674 12.1407C69.1075 15.427 68.977 18.5332 68.9757 21.4593L69.2094 21.4406L70.0365 20.5124L70.2701 20.4937L70.4726 20.0857C71.8911 18.8751 73.4051 17.8789 75.0146 17.0971C76.648 16.2874 78.5134 15.9293 80.6108 16.0229L80.6606 16.6459C79.3554 16.9853 78.1556 17.4992 77.0611 18.1876C75.9905 18.8479 74.8981 19.5622 73.7839 20.3305L73.6982 20.7292L72.8431 21.307L72.1358 23.2445C72.7671 23.9516 73.5146 24.4797 74.3785 24.8286L81.9853 26.8462L82.0351 27.4692L78.5306 27.7493C76.9015 27.3048 75.2755 26.8992 73.6526 26.5325C72.0276 26.1399 70.4649 25.5464 68.9646 24.7519L69.2554 29.8622L65.8678 30.1329ZM88.5206 28.2049L86.231 27.996L86.1812 27.373L89.8025 27.0836L92.4331 27.1476C93.6647 26.8663 94.7145 26.273 95.5826 25.3676C95.9647 24.9191 96.133 24.4093 96.0874 23.8382L95.7557 23.1201L95.3834 22.8756C93.8686 21.8994 92.2041 21.3401 90.3901 21.1977C88.5762 21.0553 86.8115 20.7131 85.0962 20.1709C84.6414 19.7109 84.3871 19.1434 84.3331 18.4685C84.4163 17.5475 84.8431 16.6774 85.6136 15.8582L86.0794 15.3115C87.5778 14.1206 89.2309 13.2309 91.0387 12.6423L96.1786 12.2315L97.4775 12.7939C97.9323 13.2539 98.0947 13.8157 97.9649 14.4792L94.6162 14.7468L94.1397 13.6876L93.3687 13.3574C91.7208 13.9855 90.2458 14.9785 88.9436 16.3366L88.0308 17.6635L87.878 18.6946L89.0882 19.6167C90.789 19.9772 92.5084 20.2447 94.2466 20.4193C95.9827 20.5679 97.5584 21.1604 98.9736 22.1968C99.4429 22.8385 99.6718 23.5778 99.6603 24.4147L99.1368 25.7106L98.5356 26.0329L98.1867 26.5702C97.2137 27.1444 96.1073 27.5202 94.8675 27.6976L88.5206 28.2049Z" fill="#8DB1C0"/>
</svg>
